<?xml version="1.0" encoding="UTF-8"?>
<svg width="640" height="480" xmlns="http://www.w3.org/2000/svg">
 <!-- Created with SVG-edit - http://svg-edit.googlecode.com/ -->
 <g>
  <title>Layer 1</title>
  <ellipse rx="1" id="svg_35" cy="0" cx="38" stroke-width="5" stroke="#ccc31e" fill="#7fff00"/>
  <ellipse rx="1" id="svg_91" cy="48" cx="485" stroke-linecap="round" stroke-width="28" stroke="#003f7f" fill="#ffff56"/>
  <path d="m151.502365,48c-1.475845,1.065216 -7.379227,3.195652 -14.758453,8.52174c-5.903366,4.260872 -12.144493,8.233723 -19.185966,12.782604c-4.665611,3.014038 -14.048988,6.985901 -17.710144,10.652176c-1.929588,1.932304 -4.682991,4.103996 -5.903374,5.326088c-1.929596,1.932304 -3.426086,5.122635 -5.903381,8.521736c-3.700012,5.07682 -10.020767,12.86615 -11.806755,15.978264c-1.262901,2.200584 -2.210167,4.181824 -2.951691,9.58696c-0.145424,1.060028 -1.475845,3.195641 -1.475845,4.260864c0,1.065216 -1.184975,4.271233 -1.475845,6.391296c-0.741516,5.405136 -0.458611,9.67244 -1.475845,12.782623c-0.758209,2.318176 -1.475838,3.195648 -1.475838,4.260864c0,2.130432 0,4.260864 0,5.326096c0,2.130417 0,4.260864 0,5.326065c0,1.065216 -0.564796,2.211533 0,3.195663c0.798721,1.391769 1.908112,1.377213 2.951683,2.130432c2.087173,1.506439 2.8545,3.34935 5.903381,4.26088c8.623543,2.57814 19.12394,5.465424 28.041046,7.456512c10.264351,2.291931 16.124786,2.660446 23.613525,3.195648c4.405968,0.314896 8.855049,1.065216 17.710121,3.195663c8.855072,2.130417 16.495483,3.563339 23.613525,5.32608c6.24292,1.546021 13.478882,1.67186 19.185989,3.195648c6.190201,1.652786 8.481308,3.591202 14.758438,6.391312c5.614456,2.504471 16.069809,5.532837 23.613525,8.521729c8.678619,3.438583 14.902924,7.269516 17.710129,8.521744c6.277161,2.800095 13.626068,7.172363 22.137665,12.782593c6.164856,4.063431 14.359375,10.895966 20.661804,15.978271c6.9599,5.612488 13.886139,11.479172 17.710175,17.043472c3.531677,5.138885 7.338623,12.407135 8.855072,17.043488c2.034454,6.220337 2.204132,13.718475 2.951691,17.043488c1.418427,6.308746 0,11.717377 0,18.108673c0,7.456512 -2.455597,13.583008 -5.903381,21.304352c-4.173889,9.347351 -8.37207,16.251251 -17.710175,24.5c-11.244537,9.932831 -29.177307,19.566315 -50.178696,28.760864c-20.346741,8.90799 -44.93605,17.085602 -84.123154,30.891296c-22.546799,7.943298 -39.969765,12.457153 -51.654564,14.913055c-8.961807,1.883606 -13.404572,1.804993 -25.089355,4.260864c-8.961815,1.883606 -13.282608,3.195648 -20.661827,4.260895l-1.475845,-1.065247l0,-4.260864" id="svg_104" stroke-linecap="round" stroke-width="61" stroke="#37efef" fill="none"/>
  <path id="svg_107" d="m432.50238,42c-1.475861,1.065216 -7.379242,3.195648 -14.758484,8.521744c-5.903351,4.260864 -12.14447,8.233719 -19.185944,12.7826c-4.665619,3.014038 -14.048981,6.985901 -17.710144,10.652176c-1.929596,1.932304 -4.683014,4.103996 -5.903381,5.326088c-1.929596,1.932304 -3.426086,5.122635 -5.903381,8.521736c-3.700012,5.07682 -10.020782,12.86615 -11.806763,15.978264c-1.262909,2.200577 -2.210175,4.181824 -2.951691,9.58696c-0.145416,1.060028 -1.47583,3.195648 -1.47583,4.260864c0,1.065216 -1.184998,4.27124 -1.475861,6.391296c-0.741516,5.405136 -0.458588,9.67244 -1.47583,12.782623c-0.758209,2.318176 -1.475861,3.195648 -1.475861,4.260864c0,2.130432 0,4.260864 0,5.326096c0,2.130417 0,4.260864 0,5.326065c0,1.065216 -0.564789,2.211533 0,3.195663c0.798737,1.391769 1.908142,1.377213 2.951691,2.130432c2.087189,1.506439 2.854523,3.34935 5.903381,4.26088c8.623566,2.57814 19.123932,5.465424 28.041046,7.456512c10.264343,2.291931 16.124786,2.660446 23.613525,3.195648c4.405975,0.314896 8.855042,1.065216 17.710144,3.195663c8.855042,2.130417 16.495483,3.563339 23.613525,5.32608c6.24292,1.546021 13.478882,1.67186 19.185974,3.195648c6.190186,1.652786 8.481323,3.591202 14.758423,6.391312c5.614471,2.504471 16.069824,5.532837 23.613525,8.521729c8.67865,3.438583 14.902954,7.269516 17.710144,8.521744c6.277161,2.800095 13.626099,7.172363 22.137695,12.782593c6.164795,4.063431 14.359375,10.89595 20.661743,15.978287c6.959961,5.612488 13.886169,11.479156 17.710205,17.043457c3.531677,5.138885 7.338623,12.407135 8.855103,17.043488c2.034424,6.220337 2.204102,13.718475 2.95166,17.043488c1.418457,6.308746 0,11.717377 0,18.108673c0,7.456512 -2.455566,13.583008 -5.903381,21.304352c-4.173889,9.347351 -8.37207,16.251251 -17.710144,24.5c-11.244568,9.932831 -29.177368,19.566315 -50.178711,28.760864c-20.346741,8.90799 -44.936066,17.085602 -84.123169,30.891296c-22.546814,7.943298 -39.969757,12.457153 -51.654572,14.913055c-8.961792,1.883606 -13.404572,1.804993 -25.089355,4.260864c-8.961823,1.883606 -13.282593,3.195648 -20.661835,4.260895l-1.47583,-1.065247l0,-4.260864" stroke-linecap="round" stroke-width="61" stroke="#37efef" fill="none"/>
 </g>
</svg>