<?xml version="1.0" encoding="UTF-8"?>
<svg width="640" height="480" xmlns="http://www.w3.org/2000/svg">
 <!-- Created with SVG-edit - http://svg-edit.googlecode.com/ -->
 <g>
  <title>Layer 1</title>
  <ellipse rx="1" id="svg_35" cy="0" cx="38" stroke-width="5" stroke="#ccc31e" fill="#7fff00"/>
  <ellipse rx="1" id="svg_91" cy="48" cx="485" stroke-linecap="round" stroke-width="28" stroke="#003f7f" fill="#ffff56"/>
  <path d="m282.114075,44c-2.066345,1.065216 -10.331787,3.195652 -20.663574,8.52174c-8.265411,4.260872 -17.003723,8.233723 -26.86261,12.782604c-6.53241,3.014038 -19.670242,6.985901 -24.79628,10.652176c-2.701645,1.932304 -6.556747,4.103996 -8.265427,5.326088c-2.70166,1.932304 -4.796921,5.122635 -8.265427,8.521736c-5.180435,5.07682 -14.030243,12.86615 -16.530838,15.978264c-1.768204,2.200584 -3.094482,4.181824 -4.132706,9.58696c-0.203613,1.060028 -2.066376,3.195641 -2.066376,4.260864c0,1.065216 -1.659103,4.271233 -2.066345,6.391296c-1.038223,5.405136 -0.64212,9.67244 -2.06636,12.782623c-1.061584,2.318176 -2.066345,3.195648 -2.066345,4.260864c0,2.130432 0,4.260864 0,5.326096c0,2.130417 0,4.260864 0,5.326065c0,1.065216 -0.790787,2.211533 0,3.195663c1.118301,1.391769 2.671585,1.377213 4.132706,2.130432c2.922287,1.506439 3.996613,3.34935 8.265427,4.26088c12.073975,2.57814 26.775757,5.465424 39.260757,7.456512c14.371307,2.291931 22.576599,2.660446 33.061707,3.195648c6.168869,0.314896 12.398117,1.065216 24.796249,3.195663c12.398132,2.130417 23.095612,3.563339 33.061707,5.32608c8.740814,1.546021 18.872009,1.67186 26.862671,3.195648c8.666992,1.652786 11.874817,3.591202 20.663544,6.391312c7.860901,2.504471 22.499603,5.532837 33.061707,8.521729c12.151062,3.438583 20.865845,7.269516 24.796234,8.521744c8.788788,2.800095 19.078094,7.172363 30.995361,12.782593c8.6315,4.063431 20.104797,10.895966 28.928955,15.978271c9.74469,5.612488 19.44223,11.479172 24.796295,17.043472c4.944763,5.138885 10.274933,12.407135 12.398193,17.043488c2.848419,6.220337 3.086029,13.718475 4.132721,17.043488c1.985901,6.308746 0,11.717377 0,18.108673c0,7.456512 -3.438232,13.583008 -8.265442,21.304352c-5.843964,9.347351 -11.721863,16.251251 -24.796326,24.5c-15.743713,9.932831 -40.851685,19.566315 -70.256073,28.760864c-28.487854,8.90799 -62.915771,17.085602 -117.782318,30.891296c-31.568176,7.943298 -55.962372,12.457153 -72.322464,14.913055c-12.547592,1.883606 -18.767975,1.804993 -35.128067,4.260864c-12.547577,1.883606 -18.597198,3.195648 -28.92897,4.260895l-2.06636,-1.065247l0,-4.260864" id="svg_104" stroke-linecap="round" stroke-width="86" stroke="#37efef" fill="none"/>
 </g>
</svg>