<?xml version="1.0" encoding="UTF-8"?>
<svg width="640" height="480" xmlns="http://www.w3.org/2000/svg" xmlns:xlink="http://www.w3.org/1999/xlink">
 <g>
  <title>Layer 1</title>
  <g id="svg_38">
   <defs transform="translate(-4, 1) translate(-8, 1) translate(-2, -1) translate(-38, 21) translate(51, 19) translate(-27, -32) translate(-1, 3) translate(3, 7) translate(-51, -25) translate(8, 30) translate(-80, 6) translate(119, -26) translate(22, 9) translate(-156, -12) translate(30, -2) translate(-94, -93) translate(-7) translate(79, 13) translate(-37, -377) translate(-0) scale(2.12314) translate(0) translate(178.713, 150.451) scale(2.16548, 1.9859) translate(-178.713, -150.451) translate(8.16829, 3.62245) scale(1.27495, 1.3518) translate(-8.16829, -3.62245) translate(94.2439, 77.0978) scale(1.05047, 1.04621) translate(-94.2439, -77.0978) translate(15.3558, 1.5545) scale(1.12449, 1.08369) translate(-15.3558, -1.5545) translate(88.0158, 73.5723) scale(1.08934, 1.01716) translate(-88.0158, -73.5723) translate(79.8692, 72.331) scale(0.648766) translate(-79.8692, -72.331) translate(103.9, 17.5438) scale(1.03454, 1.08192) translate(-103.9, -17.5438) translate(26.5233, 16.4102) scale(0.877803, 1) translate(-26.5233, -16.4102) translate(11.7631, 11.425) scale(0.803293, 1) translate(-11.7631, -11.425)">
    <linearGradient id="svg_20">
     <stop stop-color="#ddb090" id="svg_30" offset="0"/>
     <stop stop-color="#ebd1bf" offset="0.5" id="svg_29"/>
     <stop stop-color="#ce8d60" id="svg_28" offset="1"/>
    </linearGradient>
    <linearGradient id="svg_22">
     <stop stop-color="#f09092" id="svg_27" offset="0"/>
     <stop stop-color="#f2acac" offset="0.25" id="svg_26"/>
     <stop stop-color="#f5c8c7" offset="0.5" id="svg_25"/>
     <stop stop-color="#cf8885" id="svg_24" offset="0.75"/>
     <stop stop-color="#aa4944" id="svg_23" offset="1"/>
    </linearGradient>
    <linearGradient gradientTransform="matrix(3.56972, 0, 0, 4.61366, -8.68567, -2172.89)" gradientUnits="userSpaceOnUse" y2="508.32077" x2="298.99103" y1="487.9859" x1="279.91721" id="svg_15" xlink:href="#svg_22"/>
    <linearGradient gradientTransform="matrix(3.56972, 0, 0, 4.61366, -8.68567, -2172.89)" gradientUnits="userSpaceOnUse" y2="549.68903" x2="247.01926" y1="538.61761" x1="235.88579" id="svg_8" xlink:href="#svg_20"/>
   </defs>
   <metadata id="svg_16">image/svg+xml</metadata>
   <g id="svg_2">
    <path fill="url(#svg_15)" stroke="#000000" stroke-width="1px" id="svg_14" d="m0.272346,407.528625l11.623241,-42.770203l24.713139,-90.93689c0,0 150.859108,-192.284523 158.817055,-197.37307c7.958038,-5.088547 16.324524,2.628487 16.324524,2.628487c0,0 16.547302,9.613396 31.70163,32.128113c15.154205,22.514984 22.768494,34.936447 22.239197,46.625763c-0.529327,11.689362 -158.779907,198.537094 -158.779907,198.537094l-70.449745,33.798737l-36.189133,17.361969z"/>
    <path fill="#fba635" stroke="#000000" stroke-width="1px" id="svg_13" d="m33.019653,288.589264l1.383492,15.08548l25.392197,-10.098785l4.939758,41.716797l28.484276,1.980743l2.562729,23.768646l11.12912,-4.674225l66.04129,-79.316254c0,0 -13.988846,-28.407532 -33.27066,-53.03479c-19.129257,-24.432327 -35.002625,-36.616669 -35.002625,-36.616669l-68.070503,86.421326l-3.589073,14.767731z"/>
    <path fill="#f5b25f" id="svg_12" d="m59.795341,293.575958l68.144646,-84.09285c0,0 4.146088,2.69426 16.900101,20.67247c12.753983,17.978165 17.048615,25.329132 17.048615,25.329132l-68.669327,81.788513l-28.484276,-1.980469l-4.939758,-41.716797z"/>
    <path fill="#b54d0e" id="svg_11" d="m95.782104,361.042145l11.12912,-4.6745l66.04129,-79.316254l-11.063812,-21.566681l-68.669327,81.788513l2.562729,23.768921z"/>
    <path fill="#000000" id="svg_10" d="m13.074539,362.87561l22.237686,26.872711l-35.039879,17.780304l12.802193,-44.653015z"/>
    <path fill="none" stroke="#000000" stroke-width="1px" d="m33.019653,288.589264l1.383492,15.08548l25.392197,-10.098785l4.939758,41.716797l28.484276,1.980743l2.562729,23.768646l11.12912,-4.674225l66.04129,-79.316254c0,0 -13.988846,-28.407532 -33.27066,-53.03479c-19.129257,-24.432327 -35.002625,-36.616669 -35.002625,-36.616669l-68.070503,86.421326l-3.589073,14.767731z" id="svg_9"/>
    <path fill="url(#svg_8)" stroke="#000000" stroke-width="1px" id="svg_7" d="m13.074539,362.87561l22.237686,26.872711l60.469879,-28.705658l-2.562729,-23.769165l-28.484276,-1.980438l-4.939758,-41.716827l-25.392197,10.098816l-1.383492,-15.085785l-19.945114,74.286346z"/>
    <path fill="#7e5f56" id="svg_6" d="m155.083206,126.991913c0,0 22.908066,11.023529 38.025192,32.374008c15.117188,21.350723 31.975342,54.852676 31.975342,54.852676l-52.131226,62.833069c0,0 -22.615128,-44.273697 -33.813828,-55.920868c-11.198593,-11.64769 -34.459457,-33.730591 -34.459457,-33.730591l50.403976,-60.408295z"/>
    <path fill="#d6c8c6" id="svg_5" d="m104.67923,187.400208l23.260864,22.082901l52.075363,-64.578796l-24.932251,-17.912399l-50.403976,60.408295"/>
    <path fill="#ece4e2" id="svg_4" d="m127.940094,209.483109l13.827835,15.116531l20.120773,30.885071l51.304749,-60.456299c0,0 -6.017151,-18.920135 -13.088135,-28.455307c-7.071167,-9.535385 -20.089783,-21.668793 -20.089783,-21.668793"/>
    <path fill="none" stroke="#000000" stroke-width="1px" d="m155.083206,126.991913c0,0 22.908066,11.023529 38.025192,32.374008c15.117188,21.350723 31.975342,54.852676 31.975342,54.852676l-52.131226,62.833069c0,0 -20.352829,-38.16124 -31.184586,-52.452026c-10.059113,-13.271378 -37.088699,-37.199432 -37.088699,-37.199432l50.403976,-60.408295z" id="svg_3"/>
   </g>
  </g>
  <g id="svg_93">
   <metadata id="svg_107">image/svg+xml</metadata>
   <g id="svg_108">
    <path id="svg_109" fill="url(#svg_15)" stroke="#000000" stroke-width="1px" d="m187.272339,409.528625l11.623245,-42.770203l24.71315,-90.93689c0,0 150.8591,-192.284523 158.817047,-197.37307c7.958038,-5.088547 16.324524,2.628487 16.324524,2.628487c0,0 16.547302,9.613396 31.70163,32.128113c15.154205,22.514984 22.768494,34.936447 22.239197,46.625763c-0.529327,11.689362 -158.779907,198.537094 -158.779907,198.537094l-70.449738,33.798737l-36.189148,17.361969z"/>
    <path id="svg_110" fill="#fba635" stroke="#000000" stroke-width="1px" d="m220.019653,290.589264l1.383484,15.08548l25.392212,-10.098785l4.939758,41.716797l28.484253,1.980743l2.562744,23.768646l11.12912,-4.674225l66.04129,-79.316254c0,0 -13.988831,-28.407532 -33.27066,-53.03479c-19.129242,-24.432327 -35.002625,-36.616669 -35.002625,-36.616669l-68.070496,86.421326l-3.589081,14.767731z"/>
    <path id="svg_111" fill="#f5b25f" d="m246.795349,295.575958l68.144653,-84.09285c0,0 4.146057,2.69426 16.900085,20.67247c12.753967,17.978149 17.048615,25.329132 17.048615,25.329132l-68.669342,81.788513l-28.484253,-1.980469l-4.939758,-41.716797z"/>
    <path id="svg_112" fill="#b54d0e" d="m282.782104,363.042145l11.12912,-4.6745l66.04129,-79.316254l-11.063812,-21.566681l-68.669342,81.788513l2.562744,23.768921z"/>
    <path id="svg_113" fill="#000000" d="m200.074539,364.87561l22.237686,26.872711l-35.039886,17.780304l12.8022,-44.653015z"/>
    <path id="svg_114" fill="none" stroke="#000000" stroke-width="1px" d="m220.019653,290.589264l1.383484,15.08548l25.392212,-10.098785l4.939758,41.716797l28.484253,1.980743l2.562744,23.768646l11.12912,-4.674225l66.04129,-79.316254c0,0 -13.988831,-28.407532 -33.27066,-53.03479c-19.129242,-24.432327 -35.002625,-36.616669 -35.002625,-36.616669l-68.070496,86.421326l-3.589081,14.767731z"/>
    <path id="svg_115" fill="url(#svg_8)" stroke="#000000" stroke-width="1px" d="m200.074539,364.87561l22.237686,26.872711l60.469879,-28.705658l-2.562744,-23.769165l-28.484253,-1.980438l-4.939758,-41.716827l-25.392212,10.098816l-1.383484,-15.085785l-19.945114,74.286346z"/>
    <path id="svg_116" fill="#7e5f56" d="m342.083191,128.991913c0,0 22.908081,11.023529 38.025208,32.374008c15.117188,21.350723 31.975342,54.852676 31.975342,54.852676l-52.131226,62.833069c0,0 -22.615112,-44.273697 -33.813843,-55.920868c-11.198578,-11.64769 -34.459442,-33.730591 -34.459442,-33.730591l50.403961,-60.408295z"/>
    <path id="svg_117" fill="#d6c8c6" d="m291.67923,189.400208l23.260864,22.082901l52.075348,-64.578796l-24.932251,-17.912399l-50.403961,60.408295"/>
    <path id="svg_118" fill="#ece4e2" d="m314.940094,211.483109l13.82785,15.116531l20.120758,30.885071l51.304749,-60.456299c0,0 -6.017151,-18.920135 -13.088135,-28.455307c-7.071167,-9.535385 -20.089783,-21.668793 -20.089783,-21.668793"/>
    <path id="svg_119" fill="none" stroke="#000000" stroke-width="1px" d="m342.083191,128.991913c0,0 22.908081,11.023529 38.025208,32.374008c15.117188,21.350723 31.975342,54.852676 31.975342,54.852676l-52.131226,62.833069c0,0 -20.352844,-38.161224 -31.18457,-52.452026c-10.059143,-13.271378 -37.088715,-37.199432 -37.088715,-37.199432l50.403961,-60.408295z"/>
   </g>
  </g>
  <g id="svg_120">
   <metadata id="svg_134">image/svg+xml</metadata>
   <g id="svg_135">
    <path id="svg_136" fill="url(#svg_15)" stroke="#000000" stroke-width="1px" d="m371.272339,412.528625l11.62323,-42.770203l24.713165,-90.93689c0,0 150.8591,-192.284523 158.817047,-197.37307c7.958008,-5.088547 16.324524,2.628487 16.324524,2.628487c0,0 16.547302,9.613396 31.701599,32.128113c15.154236,22.514984 22.768555,34.936447 22.239258,46.625763c-0.529358,11.689362 -158.779938,198.537094 -158.779938,198.537094l-70.449738,33.798737l-36.189148,17.361969z"/>
    <path id="svg_137" fill="#fba635" stroke="#000000" stroke-width="1px" d="m404.019653,293.589264l1.383484,15.08548l25.392212,-10.098785l4.939758,41.716797l28.484253,1.980743l2.562744,23.768646l11.12912,-4.674225l66.04129,-79.316254c0,0 -13.988831,-28.407532 -33.27066,-53.03479c-19.129242,-24.432327 -35.002625,-36.616669 -35.002625,-36.616669l-68.070496,86.421326l-3.589081,14.767731z"/>
    <path id="svg_138" fill="#f5b25f" d="m430.795349,298.575958l68.144653,-84.09285c0,0 4.146057,2.69426 16.900085,20.67247c12.753967,17.978149 17.048584,25.329132 17.048584,25.329132l-68.669312,81.788513l-28.484253,-1.980469l-4.939758,-41.716797z"/>
    <path id="svg_139" fill="#b54d0e" d="m466.782104,366.042145l11.12912,-4.6745l66.04129,-79.316254l-11.063843,-21.566681l-68.669312,81.788513l2.562744,23.768921z"/>
    <path id="svg_140" fill="#000000" d="m384.074524,367.87561l22.237701,26.872711l-35.039886,17.780304l12.802185,-44.653015z"/>
    <path id="svg_141" fill="none" stroke="#000000" stroke-width="1px" d="m404.019653,293.589264l1.383484,15.08548l25.392212,-10.098785l4.939758,41.716797l28.484253,1.980743l2.562744,23.768646l11.12912,-4.674225l66.04129,-79.316254c0,0 -13.988831,-28.407532 -33.27066,-53.03479c-19.129242,-24.432327 -35.002625,-36.616669 -35.002625,-36.616669l-68.070496,86.421326l-3.589081,14.767731z"/>
    <path id="svg_142" fill="url(#svg_8)" stroke="#000000" stroke-width="1px" d="m384.074524,367.87561l22.237701,26.872711l60.469879,-28.705658l-2.562744,-23.769165l-28.484253,-1.980438l-4.939758,-41.716827l-25.392212,10.098816l-1.383484,-15.085785l-19.945129,74.286346z"/>
    <path id="svg_143" fill="#7e5f56" d="m526.083191,131.991913c0,0 22.908081,11.023529 38.025208,32.374008c15.117188,21.350723 31.975342,54.852676 31.975342,54.852676l-52.131226,62.833069c0,0 -22.615112,-44.273712 -33.813843,-55.920868c-11.198578,-11.64769 -34.459442,-33.730591 -34.459442,-33.730591l50.403961,-60.408295z"/>
    <path id="svg_144" fill="#d6c8c6" d="m475.67923,192.400208l23.260864,22.082901l52.075348,-64.578796l-24.932251,-17.912399l-50.403961,60.408295"/>
    <path id="svg_145" fill="#ece4e2" d="m498.940094,214.483109l13.82785,15.116531l20.120728,30.885071l51.30481,-60.456299c0,0 -6.017212,-18.920135 -13.088135,-28.455307c-7.071167,-9.535385 -20.089844,-21.668793 -20.089844,-21.668793"/>
    <path id="svg_146" fill="none" stroke="#000000" stroke-width="1px" d="m526.083191,131.991913c0,0 22.908081,11.023529 38.025208,32.374008c15.117188,21.350723 31.975342,54.852676 31.975342,54.852676l-52.131226,62.833069c0,0 -20.352844,-38.161224 -31.18457,-52.452026c-10.059143,-13.271378 -37.088715,-37.199432 -37.088715,-37.199432l50.403961,-60.408295z"/>
   </g>
  </g>
 </g>
</svg>