<?xml version="1.0" encoding="UTF-8"?>
<svg width="640" height="480" xmlns="http://www.w3.org/2000/svg">
 <!-- Created with SVG-edit - http://svg-edit.googlecode.com/ -->
 <g>
  <title>Layer 1</title>
  <ellipse rx="1" id="svg_35" cy="0" cx="38" stroke-width="5" stroke="#ccc31e" fill="#7fff00"/>
  <ellipse rx="1" id="svg_91" cy="48" cx="485" stroke-linecap="round" stroke-width="28" stroke="#003f7f" fill="#ffff56"/>
  <path d="m113.754242,47c-1.10894,1.024456 -5.544716,3.073368 -11.089409,8.195656c-4.435745,4.097824 -9.12529,7.918655 -14.416199,12.293472c-3.505707,2.898705 -10.556313,6.718582 -13.307281,10.244568c-1.449875,1.85836 -3.518761,3.946953 -4.43576,5.122284c-1.449875,1.85836 -2.574333,4.92662 -4.435745,8.195648c-2.780155,4.882553 -7.52953,12.373825 -8.871517,15.366852c-0.948929,2.116386 -1.660686,4.021805 -2.217873,9.220116c-0.109268,1.019463 -1.108952,3.073357 -1.108952,4.097816c0,1.024452 -0.890377,4.107796 -1.108936,6.146736c-0.557171,5.198303 -0.344604,9.302322 -1.108936,12.293503c-0.569714,2.229462 -1.108936,3.073349 -1.108936,4.097809c0,2.04892 0,4.097824 0,5.122284c0,2.048904 0,4.097824 0,5.122269c0,1.024445 -0.424389,2.126907 0,3.07338c0.600163,1.338516 1.433743,1.324509 2.217873,2.048904c1.568287,1.448807 2.144844,3.221191 4.43576,4.097855c6.479671,2.479477 14.369587,5.256271 21.069843,7.171173c7.712563,2.204224 12.116058,2.55864 17.743027,3.073364c3.310616,0.302856 6.653633,1.02446 13.307266,3.07338c6.653633,2.048889 12.394585,3.427002 17.743042,5.122284c4.690872,1.486862 10.127914,1.60788 14.416229,3.073364c4.65126,1.589539 6.372787,3.453781 11.089386,6.146744c4.218658,2.408646 12.074738,5.321121 17.743011,8.195648c6.521042,3.307007 11.197968,6.991348 13.307266,8.195648c4.716644,2.692963 10.238541,6.897919 16.634094,12.293457c4.632233,3.907944 10.789536,10.479034 15.525131,15.366867c5.22963,5.39772 10.433945,11.039917 13.307297,16.391312c2.653671,4.94223 5.514191,11.932358 6.653641,16.391312c1.528671,5.9823 1.656174,13.193542 2.217911,16.391296c1.06575,6.067352 0,11.269012 0,17.415771c0,7.171143 -1.8452,13.063232 -4.435776,20.489105c-3.136246,8.989685 -6.290695,15.629425 -13.307297,23.562531c-8.449081,9.552734 -21.923645,18.817566 -37.703918,27.660309c-15.288406,8.567139 -33.764648,16.431793 -63.209549,29.709198c-16.941513,7.639374 -30.033005,11.980499 -38.812874,14.342438c-6.733841,1.811523 -10.072105,1.735901 -18.851974,4.097809c-6.733841,1.811523 -9.980453,3.073364 -15.52515,4.097839l-1.108936,-1.024475l0,-4.097809" id="svg_104" stroke-linecap="round" stroke-width="86" stroke="#37efef" fill="none"/>
  <ellipse ry="17.499999" rx="13.5" id="svg_108" cy="258.499999" cx="347.499998" stroke-linecap="round" stroke-width="86" stroke="#37efef" fill="none"/>
  <ellipse id="svg_113" ry="17.499999" rx="13.5" cy="257.499999" cx="464.499998" stroke-linecap="round" stroke-width="86" stroke="#37efef" fill="none"/>
  <ellipse id="svg_114" ry="17.499999" rx="13.5" cy="255.499999" cx="582.499998" stroke-linecap="round" stroke-width="86" stroke="#37efef" fill="none"/>
 </g>
</svg>