<?xml version="1.0" encoding="UTF-8"?>
<svg width="640" height="480" xmlns="http://www.w3.org/2000/svg">
 <!-- Created with SVG-edit - http://svg-edit.googlecode.com/ -->
 <g>
  <title>Layer 1</title>
  <ellipse rx="1" id="svg_35" cy="0" cx="38" stroke-width="5" stroke="#ccc31e" fill="#7fff00"/>
  <ellipse rx="1" id="svg_91" cy="48" cx="485" stroke-linecap="round" stroke-width="28" stroke="#003f7f" fill="#ffff56"/>
  <path d="m100,50c-1,1 -5,3 -10,8c-4,4 -8.228851,7.729622 -13,12c-3.161316,2.829506 -9.519287,6.558189 -12,10c-1.307449,1.813995 -3.173096,3.85273 -4,5c-1.307449,1.813995 -2.321442,4.809006 -4,8c-2.50705,4.765991 -6.789856,12.07843 -8,15c-0.855713,2.065857 -1.497559,3.925797 -2,9c-0.098541,0.995132 -1,3 -1,4c0,1 -0.802917,4.009735 -1,6c-0.502441,5.074203 -0.310745,9.080246 -1,12c-0.513748,2.176254 -1,3 -1,4c0,2 0,4 0,5c0,2 0,4 0,5c0,1 -0.38269,2.076126 0,3c0.541199,1.306564 1.292892,1.292892 2,2c1.414215,1.414215 1.934143,3.144287 4,4c5.843124,2.420303 12.957962,5.130814 19,7c6.954895,2.151596 10.925797,2.497559 16,3c2.985397,0.295609 6,1 12,3c6,2 11.176971,3.345184 16,5c4.230072,1.45137 9.132996,1.569504 13,3c4.194351,1.55159 5.74675,3.371338 10,6c3.80423,2.351135 10.88855,5.194092 16,8c5.880447,3.228043 10.0979,6.824432 12,8c4.253265,2.628662 9.232727,6.733246 15,12c4.177155,3.814636 9.729614,10.228851 14,15c4.715851,5.26886 9.408936,10.776367 12,16c2.392975,4.82428 4.972504,11.647491 6,16c1.37851,5.839508 1.493469,12.878571 2,16c0.96109,5.922516 0,11 0,17c0,7 -1.663849,12.751404 -4,20c-2.828125,8.775055 -5.672729,15.256256 -12,23c-7.619049,9.324707 -19.769928,18.368347 -34,27c-13.786499,8.362579 -30.447678,16.03952 -57,29c-15.277222,7.45697 -27.082642,11.694458 -35,14c-6.072327,1.76828 -9.082642,1.694458 -17,4c-6.072327,1.76828 -9,3 -14,4l-1,-1l0,-4" id="svg_104" stroke-linecap="round" stroke-width="61" stroke="#37efef" fill="none"/>
  <path id="svg_105" d="m492,54c-1,1 -5,3 -10,8c-4,4 -8.228851,7.729622 -13,12c-3.161316,2.829506 -9.519287,6.558189 -12,10c-1.307434,1.813995 -3.173096,3.85273 -4,5c-1.307434,1.813995 -2.321442,4.809006 -4,8c-2.50705,4.765991 -6.789856,12.07843 -8,15c-0.855713,2.065857 -1.497559,3.925797 -2,9c-0.098541,0.995132 -1,3 -1,4c0,1 -0.802917,4.009735 -1,6c-0.502441,5.074203 -0.31073,9.080246 -1,12c-0.513733,2.176254 -1,3 -1,4c0,2 0,4 0,5c0,2 0,4 0,5c0,1 -0.38269,2.076126 0,3c0.541199,1.306564 1.292908,1.292892 2,2c1.414215,1.414215 1.934143,3.144287 4,4c5.84314,2.420303 12.957947,5.130814 19,7c6.954895,2.151596 10.925781,2.497559 16,3c2.985413,0.295609 6,1 12,3c6,2 11.176971,3.345184 16,5c4.230072,1.45137 9.132996,1.569504 13,3c4.194336,1.55159 5.746765,3.371338 10,6c3.804199,2.351135 10.88855,5.194092 16,8c5.880432,3.228043 10.0979,6.824432 12,8c4.253296,2.628662 9.232727,6.733246 15,12c4.177124,3.814636 9.729614,10.228851 14,15c4.71582,5.26886 9.408936,10.776367 12,16c2.392944,4.82428 4.972534,11.647491 6,16c1.37854,5.839508 1.493469,12.878571 2,16c0.96106,5.922516 0,11 0,17c0,7 -1.663818,12.751404 -4,20c-2.828125,8.775055 -5.672729,15.256256 -12,23c-7.619019,9.324707 -19.769897,18.368347 -34,27c-13.786499,8.362579 -30.447693,16.03952 -57,29c-15.277222,7.45697 -27.082642,11.694458 -35,14c-6.072327,1.76828 -9.082642,1.694458 -17,4c-6.072327,1.76828 -9,3 -14,4l-1,-1l0,-4" stroke-linecap="round" stroke-width="61" stroke="#37efef" fill="none"/>
  <path id="svg_106" d="m296,49c-1,1 -5,3 -10,8c-4,4 -8.228851,7.729622 -13,12c-3.161316,2.829506 -9.519287,6.558189 -12,10c-1.307434,1.813995 -3.173096,3.85273 -4,5c-1.307449,1.813995 -2.321442,4.809006 -4,8c-2.50705,4.765991 -6.789856,12.07843 -8,15c-0.855713,2.065857 -1.497559,3.925797 -2,9c-0.098541,0.995132 -1,3 -1,4c0,1 -0.802917,4.009735 -1,6c-0.502441,5.074203 -0.310745,9.080246 -1,12c-0.513748,2.176254 -1,3 -1,4c0,2 0,4 0,5c0,2 0,4 0,5c0,1 -0.38269,2.076126 0,3c0.541199,1.306564 1.292892,1.292892 2,2c1.414215,1.414215 1.934143,3.144287 4,4c5.843124,2.420303 12.957947,5.130814 19,7c6.954895,2.151596 10.925781,2.497559 16,3c2.985413,0.295609 6,1 12,3c6,2 11.176971,3.345184 16,5c4.230072,1.45137 9.132996,1.569504 13,3c4.194336,1.55159 5.746765,3.371338 10,6c3.80423,2.351135 10.88855,5.194092 16,8c5.880432,3.228043 10.0979,6.824432 12,8c4.253265,2.628662 9.232727,6.733246 15,12c4.177155,3.814636 9.729614,10.228851 14,15c4.715851,5.26886 9.408936,10.776367 12,16c2.392975,4.82428 4.972504,11.647491 6,16c1.37851,5.839508 1.493469,12.878571 2,16c0.96109,5.922516 0,11 0,17c0,7 -1.663849,12.751404 -4,20c-2.828125,8.775055 -5.672729,15.256256 -12,23c-7.619049,9.324707 -19.769928,18.368347 -34,27c-13.786499,8.362579 -30.447693,16.03952 -57,29c-15.277222,7.45697 -27.082642,11.694458 -35,14c-6.072327,1.76828 -9.082642,1.694458 -17,4c-6.072327,1.76828 -9,3 -14,4l-1,-1l0,-4" stroke-linecap="round" stroke-width="61" stroke="#37efef" fill="none"/>
 </g>
</svg>