<?xml version="1.0" encoding="UTF-8"?>
<svg width="640" height="480" xmlns="http://www.w3.org/2000/svg" xmlns:xlink="http://www.w3.org/1999/xlink">
 <g>
  <title>Layer 1</title>
  <g id="svg_38">
   <defs transform="translate(-1, 3) translate(3, 7) translate(-51, -25) translate(8, 30) translate(-80, 6) translate(119, -26) translate(22, 9) translate(-156, -12) translate(30, -2) translate(-94, -93) translate(-7) translate(79, 13) translate(-37, -377) translate(-0) scale(2.12314) translate(0) translate(178.713, 150.451) scale(2.16548, 1.9859) translate(-178.713, -150.451) translate(8.16829, 3.62245) scale(1.27495, 1.3518) translate(-8.16829, -3.62245) translate(94.2439, 77.0978) scale(1.05047, 1.04621) translate(-94.2439, -77.0978) translate(15.3558, 1.5545) scale(1.12449, 1.08369) translate(-15.3558, -1.5545) translate(88.0158, 73.5723) scale(1.08934, 1.01716) translate(-88.0158, -73.5723) translate(79.8692, 72.331) scale(0.648766) translate(-79.8692, -72.331) translate(103.9, 17.5438) scale(1.03454, 1.08192) translate(-103.9, -17.5438) translate(26.5233, 16.4102) scale(0.877803, 1) translate(-26.5233, -16.4102)">
    <linearGradient id="svg_20">
     <stop stop-color="#ddb090" id="svg_30" offset="0"/>
     <stop stop-color="#ebd1bf" offset="0.5" id="svg_29"/>
     <stop stop-color="#ce8d60" id="svg_28" offset="1"/>
    </linearGradient>
    <linearGradient id="svg_22">
     <stop stop-color="#f09092" id="svg_27" offset="0"/>
     <stop stop-color="#f2acac" offset="0.25" id="svg_26"/>
     <stop stop-color="#f5c8c7" offset="0.5" id="svg_25"/>
     <stop stop-color="#cf8885" id="svg_24" offset="0.75"/>
     <stop stop-color="#aa4944" id="svg_23" offset="1"/>
    </linearGradient>
    <linearGradient gradientTransform="matrix(4.44386, 0, 0, 4.61366, -780.766, -2177.89)" gradientUnits="userSpaceOnUse" y2="508.32077" x2="298.99103" y1="487.9859" x1="279.91721" id="svg_15" xlink:href="#svg_22"/>
    <linearGradient gradientTransform="matrix(4.44386, 0, 0, 4.61366, -780.766, -2177.89)" gradientUnits="userSpaceOnUse" y2="549.68903" x2="247.01926" y1="538.61761" x1="235.88579" id="svg_8" xlink:href="#svg_20"/>
   </defs>
   <metadata id="svg_16">image/svg+xml</metadata>
   <g id="svg_2">
    <path fill="url(#svg_15)" stroke="#000000" stroke-width="1px" id="svg_14" d="m28.272079,398.528625l14.469482,-42.770203l30.764771,-90.93689c0,0 187.800766,-192.284523 197.707413,-197.37307c9.906769,-5.088547 20.321991,2.628487 20.321991,2.628487c0,0 20.599335,9.613396 39.464569,32.128113c18.865112,22.514984 28.343933,34.936447 27.685028,46.625763c-0.658966,11.689362 -197.661163,198.537094 -197.661163,198.537094l-87.701141,33.798737l-45.050949,17.361969z"/>
    <path fill="#fba635" stroke="#000000" stroke-width="1px" id="svg_13" d="m69.038391,279.589264l1.722275,15.08548l31.610107,-10.098785l6.149384,41.716797l35.459366,1.980743l3.190277,23.768646l13.85437,-4.674225l82.213165,-79.316254c0,0 -17.414368,-28.407532 -41.417816,-53.03479c-23.813538,-24.432327 -43.573914,-36.616669 -43.573914,-36.616669l-84.739273,86.421326l-4.467941,14.767731z"/>
    <path fill="#f5b25f" id="svg_12" d="m102.370773,284.575958l84.831589,-84.09285c0,0 5.161346,2.69426 21.038513,20.67247c15.877106,17.978165 21.223389,25.329132 21.223389,25.329132l-85.484741,81.788513l-35.459366,-1.980469l-6.149384,-41.716797z"/>
    <path fill="#b54d0e" id="svg_11" d="m147.1698,352.042145l13.85437,-4.6745l82.213165,-79.316254l-13.773071,-21.566681l-85.484741,81.788513l3.190277,23.768921z"/>
    <path fill="#000000" id="svg_10" d="m44.209213,353.87561l27.683136,26.872711l-43.62027,17.780304l15.937134,-44.653015z"/>
    <path fill="none" stroke="#000000" stroke-width="1px" d="m69.038391,279.589264l1.722275,15.08548l31.610107,-10.098785l6.149384,41.716797l35.459366,1.980743l3.190277,23.768646l13.85437,-4.674225l82.213165,-79.316254c0,0 -17.414368,-28.407532 -41.417816,-53.03479c-23.813538,-24.432327 -43.573914,-36.616669 -43.573914,-36.616669l-84.739273,86.421326l-4.467941,14.767731z" id="svg_9"/>
    <path fill="url(#svg_8)" stroke="#000000" stroke-width="1px" id="svg_7" d="m44.209213,353.87561l27.683136,26.872711l75.277451,-28.705658l-3.190277,-23.769165l-35.459366,-1.980438l-6.149384,-41.716827l-31.610107,10.098816l-1.722275,-15.085785l-24.829178,74.286346z"/>
    <path fill="#7e5f56" id="svg_6" d="m220.992279,117.991913c0,0 28.51767,11.023529 47.336609,32.374008c18.819,21.350723 39.805298,54.852676 39.805298,54.852676l-64.896851,62.833069c0,0 -28.153015,-44.273697 -42.093994,-55.920868c-13.940857,-11.64769 -42.897736,-33.730591 -42.897736,-33.730591l62.746674,-60.408295z"/>
    <path fill="#d6c8c6" id="svg_5" d="m158.245605,178.400208l28.956879,22.082901l64.827332,-64.578796l-31.037537,-17.912399l-62.746674,60.408295"/>
    <path fill="#ece4e2" id="svg_4" d="m187.202484,200.483109l17.213928,15.116531l25.047852,30.885071l63.868011,-60.456299c0,0 -7.490601,-18.920135 -16.293091,-28.455307c-8.802734,-9.535385 -25.009277,-21.668793 -25.009277,-21.668793"/>
    <path fill="none" stroke="#000000" stroke-width="1px" d="m220.992279,117.991913c0,0 28.51767,11.023529 47.336609,32.374008c18.819,21.350723 39.805298,54.852676 39.805298,54.852676l-64.896851,62.833069c0,0 -25.336731,-38.16124 -38.820923,-52.452026c-12.522339,-13.271378 -46.170807,-37.199432 -46.170807,-37.199432l62.746674,-60.408295z" id="svg_3"/>
   </g>
  </g>
  <g id="svg_39">
   <metadata id="svg_53">image/svg+xml</metadata>
   <g id="svg_54">
    <path id="svg_55" fill="url(#svg_15)" stroke="#000000" stroke-width="1px" d="m289.272095,399.528625l14.469482,-42.770203l30.764771,-90.93689c0,0 187.800781,-192.284523 197.707397,-197.37307c9.906738,-5.088547 20.322021,2.628487 20.322021,2.628487c0,0 20.599304,9.613396 39.464539,32.128113c18.865112,22.514984 28.343933,34.936447 27.684998,46.625763c-0.658936,11.689362 -197.661133,198.537094 -197.661133,198.537094l-87.701141,33.798737l-45.050934,17.361969z"/>
    <path id="svg_56" fill="#fba635" stroke="#000000" stroke-width="1px" d="m330.038391,280.589264l1.72229,15.08548l31.610107,-10.098785l6.149353,41.716797l35.459381,1.980743l3.190277,23.768646l13.85437,-4.674225l82.213165,-79.316254c0,0 -17.414368,-28.407532 -41.417816,-53.03479c-23.813538,-24.432327 -43.573914,-36.616669 -43.573914,-36.616669l-84.739258,86.421326l-4.467957,14.767731z"/>
    <path id="svg_57" fill="#f5b25f" d="m363.370789,285.575958l84.831573,-84.09285c0,0 5.161346,2.69426 21.038513,20.67247c15.877106,17.978149 21.223389,25.329132 21.223389,25.329132l-85.484741,81.788513l-35.459381,-1.980469l-6.149353,-41.716797z"/>
    <path id="svg_58" fill="#b54d0e" d="m408.1698,353.042145l13.85437,-4.6745l82.213165,-79.316254l-13.773071,-21.566681l-85.484741,81.788513l3.190277,23.768921z"/>
    <path id="svg_59" fill="#000000" d="m305.209229,354.87561l27.683105,26.872711l-43.620239,17.780304l15.937134,-44.653015z"/>
    <path id="svg_60" fill="none" stroke="#000000" stroke-width="1px" d="m330.038391,280.589264l1.72229,15.08548l31.610107,-10.098785l6.149353,41.716797l35.459381,1.980743l3.190277,23.768646l13.85437,-4.674225l82.213165,-79.316254c0,0 -17.414368,-28.407532 -41.417816,-53.03479c-23.813538,-24.432327 -43.573914,-36.616669 -43.573914,-36.616669l-84.739258,86.421326l-4.467957,14.767731z"/>
    <path id="svg_61" fill="url(#svg_8)" stroke="#000000" stroke-width="1px" d="m305.209229,354.87561l27.683105,26.872711l75.277466,-28.705658l-3.190277,-23.769165l-35.459381,-1.980438l-6.149353,-41.716827l-31.610107,10.098816l-1.72229,-15.085785l-24.829163,74.286346z"/>
    <path id="svg_62" fill="#7e5f56" d="m481.992279,118.991913c0,0 28.51767,11.023529 47.336578,32.374008c18.819031,21.350723 39.805298,54.852676 39.805298,54.852676l-64.89682,62.833069c0,0 -28.153015,-44.273712 -42.093994,-55.920868c-13.940857,-11.64769 -42.897736,-33.730591 -42.897736,-33.730591l62.746674,-60.408295z"/>
    <path id="svg_63" fill="#d6c8c6" d="m419.245605,179.400208l28.956879,22.082901l64.827301,-64.578796l-31.037506,-17.912399l-62.746674,60.408295"/>
    <path id="svg_64" fill="#ece4e2" d="m448.202484,201.483109l17.213928,15.116531l25.047852,30.885071l63.868011,-60.456299c0,0 -7.490601,-18.920135 -16.293091,-28.455307c-8.802734,-9.535385 -25.009277,-21.668793 -25.009277,-21.668793"/>
    <path id="svg_65" fill="none" stroke="#000000" stroke-width="1px" d="m481.992279,118.991913c0,0 28.51767,11.023529 47.336578,32.374008c18.819031,21.350723 39.805298,54.852676 39.805298,54.852676l-64.89682,62.833069c0,0 -25.336731,-38.161224 -38.820923,-52.452026c-12.522339,-13.271378 -46.170807,-37.199432 -46.170807,-37.199432l62.746674,-60.408295z"/>
   </g>
  </g>
 </g>
</svg>