<?xml version="1.0" encoding="UTF-8"?>
<svg width="640" height="480" xmlns="http://www.w3.org/2000/svg">
 <!-- Created with SVG-edit - http://svg-edit.googlecode.com/ -->
 <defs>
  <filter id="svg_17_blur" x="-50%" y="-50%" width="200%" height="200%">
   <feGaussianBlur stdDeviation="10"/>
  </filter>
 </defs>
 <g>
  <title>Layer 1</title>
  <g id="svg_15">
   <metadata>image/svg+xmlQuasar Jarosz, quasarj.com</metadata>
   <g id="svg_9">
    <g id="svg_13">
     <path d="m108.473854,391.893738l5.636742,-17.626678c-6.469986,3.214783 -16.78846,14.44519 -23.33963,13.0466c10.85569,-9.763367 21.392586,-17.994446 27.850891,-34.461395c8.279129,-18.36026 4.590027,-26.343323 -10.602165,-25.216003c-14.323288,1.062653 -28.944984,13.075806 -28.36657,39.913239c0.233856,10.842102 -3.333412,16.155029 -3.588203,4.942627c-0.083084,-3.645721 -2.316826,-3.413666 -4.74202,-1.286896c-7.903732,7.292786 8.248405,-30.318268 6.797958,-35.917114c-6.205971,2.166626 -21.025223,39.675293 -23.703903,35.42038c1.260254,-9.391632 0.159988,-12.340393 -5.369087,-1.334137c-1.867607,3.71759 -7.476196,12.164154 -8.769218,10.39389c4.510292,-12.617065 13.043579,-23.391235 17.581913,-36.084106c0,-0.623779 -4.508808,1.047394 -10.018803,3.714203c-11.482044,5.556335 -17.908886,4.978455 -12.671268,-1.13855c3.137012,-3.664368 37.024403,-19.14563 58.772709,-26.850067c18.248695,-6.464813 21.795647,-8.890869 21.749496,-14.874146c-0.044922,-5.839661 -4.30143,-11.352112 -10.907982,-16.412384c-9.20713,-7.052704 -23.951294,-1.292145 -37.731827,17.33609c-4.778915,5.953369 -7.313004,14.847626 -15.243847,15.074371c0.959354,-2.695404 -0.019711,-8.786469 5.10321,-13.339294c2.494076,-2.215851 5.533985,-7.168335 7.167812,-10.508209c2.94207,-6.013855 4.919876,-8.720551 4.919876,-8.720551c0,0 -31.67548,6.370361 -31.709396,6.449493c7.866989,-4.720459 8.170349,-4.113892 4.05085,-12.426147c-3.471539,-8.295654 -3.725735,-11.510406 -2.848236,-36.027588c0.958572,-26.782883 3.726738,-36.815567 3.726738,-36.815567c0.6548,5.817017 2.898849,11.822296 6.909828,0.097107c0,0 -0.77597,0.813309 -2.115032,23.10788c-1.59441,26.532211 4.118046,43.765244 12.9104,44.984909c4.574635,0.635132 24.314976,0.513428 25.801716,-1.618683c-2.60791,-7.343292 -15.53553,-7.210968 -21.067093,-11.478485c-0.034439,-0.841919 3.547592,-1.107269 7.351791,-2.311646c6.190575,-1.960571 7.458237,-0.609863 15.781097,3.848511c17.487488,10.937866 10.3283,4.816162 10.087082,-7.899292c0,0 4.438034,5.627594 7.748093,9.04187c9.791092,10.099182 14.510315,5.502472 13.704811,-11.235107c-0.563683,-11.698608 -3.028229,-26.548813 -15.672157,-43.228577c-7.325912,-9.664246 -5.813362,-14.370682 -12.613144,-15.876984c-17.114624,3.803986 -26.885406,-14.801636 -32.997837,-18.103546c-4.042332,0 -16.250771,-6.342407 -18.44725,-8.070847c-7.626072,-9.684921 14.801846,1.069382 18.251595,0.355118c-0.839977,-11.87088 -26.96871,-40.987396 -26.420341,-39.869446c7.347221,-2.549072 0.934101,-19.311264 1.021942,-24.170639c3.716434,5.00901 5.071789,3.807968 6.675423,-1.480377c-0.589573,19.403702 0.704266,30.107376 12.43206,42.264877c10.536934,13.139069 16.62289,35.221542 32.335674,39.932602c3.913727,1.365326 7.50502,1.552902 9.268639,0.538055c3.472504,-1.998444 5.879219,-6.118286 -17.69426,-37.601044c-14.083858,-18.808456 -18.427128,-26.456345 -16.209972,-29.949799c3.257137,-0.669022 3.883568,0.869873 9.369579,7.548172l6.845337,8.330841l0.905838,-6.41954c0.935959,-5.776505 0.198151,-20.455109 -5.023254,-28.881088c-2.98513,-4.816177 2.396866,-3.877823 5.212143,1.800217l2.550713,5.146065l1.239952,-5.969345c1.573517,-7.571434 3.224525,-13.228851 3.224525,-13.228851c-0.358147,7.342613 0.971657,9.960182 5.21463,6.188797c-0.361855,20.976479 -15.666031,39.41256 -1.086128,62.929482l3.810333,-6.825928c3.028236,-5.424652 5.010948,-11.021606 4.673111,-27.338211c-0.321243,-15.511215 2.793121,-28.581146 4.252792,-28.843842c0.996284,7.543495 -1.387039,17.437851 2.972229,24.779831c0.267654,-6.727455 5.129684,-17.622055 5.717957,-16.747559c0.453529,0 0.325531,5.059608 -5.980118,29.463669c-5.830574,22.563934 -3.904503,40.145462 1.162415,52.01564c3.527283,8.261078 6.717369,7.402496 7.400398,3.129639c0.420326,-2.62886 0.455994,-13.596603 0.079399,-24.372803c-0.676926,-19.374466 -0.571686,-22.638443 -0.571686,-22.638443c-0.252289,5.815735 9.356644,15.329712 18.50412,-9.464096c2.917999,-7.907227 8.4785,-16.121765 8.4785,-16.121765c-3.795029,11.519745 -3.937149,18.410156 -3.699585,20.562866c0.728561,0.531372 7.18808,-2.4021 10.482147,-5.068207c-0.052872,-0.089111 -20.896614,28.17215 -22.106445,38.386383c5.852112,5.392761 17.623489,-19.045868 17.623489,-19.045868c0.057205,-0.308594 1.511993,6.795975 1.372253,7.553436c0.402466,0.186188 7.841049,-6.37236 8.064423,-5.769806c0.505188,-0.562653 -6.817078,11.983231 -17.576141,20.68988c-17.488091,18.41478 -12.00885,41.389709 -5.68718,52.126678c4.29277,9.374298 21.610443,21.871643 28.426849,23.67984c10.872269,2.884308 12.096878,-13.984329 2.343277,-32.274765c-7.058228,-13.23616 -11.411316,-35.008072 -9.217545,-41.258041c2.054077,-5.851624 3.424515,0.83728 8.014511,5.929443c1.989517,2.207932 2.395035,-4.371948 1.664627,-17.287537c-0.983368,-17.375336 -2.156876,-21.75528 0.478119,-21.75528c1.63443,0 3.124847,3.354446 3.124847,4.405869c0,1.050735 1.711258,-0.093765 3.232483,-0.000687c2.211624,0.13501 0.010483,14.982574 -0.793198,17.102692c-1.135986,2.995972 6.388733,-10.108536 8.620056,-16.570648c1.7341,-5.021652 2.517471,-17.346069 2.517471,-17.346069c-0.165573,0.319885 1.598053,12.282501 4.893387,10.610596c1.708878,-0.866516 1.121201,0.801392 2.116257,0.801392c0.994385,0 2.34639,-2.286392 2.34639,-6.604462c0,-5.9534 0.613495,-7.60202 2.538971,-6.820572c1.782059,0.722885 3.080521,-2.583679 5.897064,-10.544815c2.435059,-6.881088 3.441116,-15.217972 5.077988,-15.217972c3.014694,0 1.494751,11.536377 -3.43129,36.125977c-6.144379,30.672043 -3.810928,30.385391 7.994293,12.690842c4.209076,-6.308487 8.627411,-13.468231 10.08519,-13.468231c3.561752,0 -5.354324,17.776337 -5.354324,17.776337c0,0 4.87738,0.360443 7.060745,1.692505c1.348877,0.822647 -3.624527,5.68869 -15.970566,15.41214c-13.667938,10.765594 -13.246429,14.074127 -21.015427,45.36998c-9.333862,27.267715 18.150223,46.671402 38.023514,49.912125c26.51738,8.451294 48.332123,15.930206 67.999176,22.224762c23.166107,7.415131 43.698425,13.815399 68.797363,14.581543c22.981476,0.700897 47.366669,-1.563507 69.408447,-9.178131c20.284332,-7.006775 38.584778,-18.074951 51.982574,-36.002258c22.350647,-29.907272 37.438873,-59.518585 37.438873,-59.518585c6.412781,-19.478821 16.78595,-37.05304 14.868469,-58.477783c-1.132874,-7.662491 -8.814575,-13.622528 -13.226074,-8.837616c-1.394409,1.512299 -4.476868,6.133606 -6.841614,6.133606c-5.63736,0 -8.062012,-4.720383 -2.515015,-8.656082l6.353699,-2.533768c-2.873199,-10.451675 -16.363312,-7.856689 -8.777618,-16.387749c6.743744,-5.490547 11.975616,-4.030785 10.30365,2.424042c-0.722473,2.789146 3.152618,6.356407 10.108002,9.749382c9.435425,4.602707 10.04895,2.126129 10.428711,1.270905c0.578979,-1.306152 0.739014,-4.111252 2.306885,-5.487213c2.063965,-1.810196 5.797363,-2.051636 4.966675,-6.731468c-1.129761,-6.36837 -3.016479,-11.628777 2.877441,-11.030251c5.025696,0.510086 0.880554,7.364571 3.143982,9.930923c3.805969,4.315414 13.821106,-5.257065 16.372375,4.403885c-0.534729,2.860962 -1.510071,4.784912 -7.701294,3.594513c-6.196777,-1.191772 -11.193481,-0.608505 -14.941711,7.860046c-2.640564,5.965317 -6.939514,26.455688 -3.892273,25.156891c0.941528,-0.401031 11.946228,-6.911682 20.732422,-12.168152c18.302185,-10.951111 31.349792,-21.552399 30.520935,-29.903214c-0.391968,-3.951004 -0.077576,-8.830353 3.545715,-10.574707c8.184937,-3.942329 8.25885,-0.616508 6.76532,6.554573c-1.131042,5.430656 1.536499,5.294975 2.50885,5.499832c0.147705,0.952293 -11.061829,10.475609 -11.061829,10.475609c0,0 17.246277,-8.239105 17.246277,-4.090637c0,4.979797 -3.519836,7.011475 -15.868469,10.792831c-5.880371,1.800217 -15.187195,7.589355 -19.750854,10.996994c-10.707275,9.818558 -32.235962,13.173676 -36.129944,30.235123c-2.985168,6.858475 -4.926025,10.23555 -3.249146,11.361435c3.86145,2.592957 9.174561,3.534012 18.605042,-6.885773c5.07489,-5.606247 11.476563,-11.185181 14.226624,-12.396881c2.75,-1.2117 5.911194,-4.377258 7.072388,-7.010147c2.791382,-6.329788 6.980103,-11.429276 6.824402,-3.192154c-0.092285,4.88269 2.392517,5.39743 7.463867,-1.191071c5.310608,-6.897736 9.409546,-3.190186 7.677246,5.670715c-0.947021,4.843475 -19.12561,6.092422 -19.61731,8.727905c0,1.680573 12.489563,1.704498 11.398499,2.378845c-7.836731,5.576294 -19.108948,2.971359 -24.744507,11.632111l14.223511,2.10817c5.429443,0.901138 11.587952,2.827042 13.685181,4.278839c2.096558,1.452408 9.839722,4.538162 17.205017,6.857147c12.258118,3.859161 20.590149,7.693771 20.836365,11.249695c0.27063,3.834595 -23.543945,-4.594727 -37.760742,-10.92981c-2.862061,-1.275528 8.098816,7.852722 12.038391,14.183807c2.886047,4.637314 5.858276,12.174133 5.987549,20.602783c0.2276,15.360306 3.316833,16.630447 12.018005,19.521408c8.41217,2.794495 7.999817,8.720612 -0.56604,9.484039c-13.138062,-1.921936 -16.854919,-14.208435 -19.187195,-26.092606c-4.626282,4.587448 -13.496155,16.911148 -15.860413,9.379654c0,-1.981812 0.935303,-4.41713 3.408508,-6.129623c7.879761,-5.457275 12.341248,-11.989227 10.180054,-18.555771c-3.570984,-10.842041 -35.760254,-35.926468 -45.633789,-27.269745c-2.036194,1.785629 2.817749,5.58696 5.66449,11.820343c4.59491,10.061935 4.765381,18.680115 3.532776,20.78894c-0.582703,0.996231 -5.852112,0.903152 -5.773987,-1.618042c0.424622,-13.690369 -3.447815,-20.822861 -5.037292,-21.877625c-1.092346,-0.589844 -1.629578,7.599365 1.29834,26.681168c0.303955,1.983154 -0.954468,2.58963 -2.915649,2.58963c-5.126038,0 -7.002197,-2.921448 -5.326538,-8.180527c1.737122,-5.452652 -0.036926,-12.083023 -1.806091,-17.648682c-2.401245,-7.554153 -8.925293,-11.429276 -15.055542,-3.789368c-2.105896,2.544418 -4.073242,5.154663 -5.927856,7.807526c-15.548523,22.236038 -23.164276,47.455444 -37.595856,61.888062c-17.381653,17.381958 -35.565094,30.183838 -55.966949,37.665466c-21.71756,7.964447 -45.702637,10.566772 -73.138245,8.332916c-22.048462,-1.794312 -45.965363,-9.730804 -73.296906,-15.728058l-63.645477,-17.241638c-15.437729,2.789124 -32.684586,19.49408 -33.675934,25.222046c-1.594406,9.207428 13.00766,17.022186 33.451309,22.08844c9.599106,4.11322 9.973923,5.441315 -0.502731,4.131805l-9.895752,-0.485443c2.398773,5.710663 10.082214,8.301605 10.993515,11.852295c-6.624435,5.974548 -47.252731,-32.454376 -48.326553,-22.489502c-4.274323,21.593628 58.023544,53.223969 40.382843,52.107361c-3.7556,-0.725525 -8.210281,-1.864716 -9.47728,-2.067627c-3.623947,-0.580505 -7.789963,3.416931 -3.634949,8.961395c2.303253,3.073151 6.386871,8.202545 4.246658,9.409576c-10.625565,-5.148041 -13.06427,-23.502319 -24.193817,-27.902161c-4.68602,4.494324 -0.131058,16.117737 -4.951843,20.469055c-0.245529,-18.046326 -0.406723,-36.090759 -10.270477,-54.442993l-10.258713,0l-12.652557,0c1.725464,11.358063 4.908112,54.742279 2.785172,50.289185c-3.102112,-6.505341 -6.071289,-13.512115 -8.59671,-22.196838c-5.302025,7.063385 -10.617561,31.570496 -11.013229,42.07074c-1.989479,-8.278992 -4.187592,-10.555389 -10.507362,-3.403687l0,0zm66.179543,-196.040665c7.255188,-15.257874 9.595474,-45.732376 7.910553,-51.594009c-1.737152,-6.045151 -28.446579,47.893127 -22.194412,56.38092c3.382065,4.592072 7.564072,12.774002 9.658768,10.438385c0.786484,-0.877213 2.487335,-7.865982 4.625092,-15.225296z" fill="#00007f"/>
     <path d="m145.488098,276.403015c-5.081421,-2.935303 -8.768951,0.366394 -8.768951,5.819031c0,6.520142 18.371124,28.194885 23.230072,22.943665c9.621567,-10.398132 -3.878845,-25.612671 -14.461121,-28.762695z" id="svg_14" fill="#00007f"/>
    </g>
    <g id="svg_10">
     <g id="svg_12">
      <path d="m217.639832,264.931152c18.297211,-4.381714 35.687546,4.625244 52.719971,10.806885c4.354309,1.926941 8.181641,5.510742 10.121185,10.196228c-0.34787,8.301819 -8.411713,15.034241 -15.93219,13.370392c-12.811523,0.266235 -26.153656,-1.342407 -37.479279,-8.286713c-5.35231,-2.559082 -11.176193,-6.241974 -12.895569,-12.72821c-0.74379,-4.754791 1.10701,-9.451172 3.465881,-13.358582z" fill="#00007f"/>
      <path d="m290.253113,286.877319c9.282562,-2.347656 16.798645,0.106201 25.53772,1.995056c7.388458,1.596985 17.74823,2.108765 24.306915,5.652802c27.691681,25.824097 -15.818512,23.721344 -29.845245,20.948608c-16.184448,-4.036713 -38.073669,-17.227081 -19.99939,-28.596466z" fill="#00007f"/>
      <path d="m357.943481,300.842987c9.013855,-2.881866 58.501282,-15.995026 61.536652,-1.662628c5.152008,24.327576 -34.306,26.402344 -48.614044,23.276245c-6.75116,-1.475037 -23.640778,-10.711487 -12.922607,-21.613617z" fill="#00007f"/>
      <path d="m425.941467,290.534973c3.647064,-7.476257 45.038361,-42.603485 53.536835,-21.281067c4.226532,10.604004 -55.019775,51.77243 -54.767639,30.259033c0.044189,-3.762756 -1.226349,-4.992493 1.230804,-8.977966z" fill="#00007f"/>
      <path d="m486.824249,263.684204c7.730011,-1.307617 10.971802,-9.571228 17.268799,-16.376404c9.059296,-9.790619 18.15329,-24.872391 18.15329,-38.239487c0,-3.097504 -14.530457,-11.895706 -17.087402,-9.132401c-6.706055,7.24736 -49.889221,60.338135 -18.334686,63.748291z" fill="#00007f"/>
     </g>
     <g id="svg_11">
      <path d="m237.177765,279.72818c1.883972,-0.345978 3.280975,-0.621918 4.384476,-2.410767c3.441193,-5.5784 -6.18634,-5.91806 -8.768951,-4.987732c-5.268707,1.897949 0.003723,8.202789 4.384476,7.398499z" fill="#00007f"/>
      <path d="m311.71405,307.243958c2.024017,-0.203369 3.850952,-0.58728 5.23056,-2.078247c4.483459,-4.845276 -5.049896,-6.466003 -7.769012,-5.486542c-4.411469,1.589172 -1.743744,7.995087 2.538452,7.564789z" fill="#00007f"/>
      <path d="m386.481079,313.312439c15.047577,0.996246 7.80014,-13.97644 -2.153839,-7.564819c-3.25592,2.09729 -0.877014,7.564819 2.153839,7.564819z" fill="#00007f"/>
      <path d="m451.940674,277.400543c-1.869659,0.052155 -3.514984,1.424042 -4.999878,2.493866c-5.178284,3.730835 2.133057,8.972656 6.229034,7.202026c6.776703,-2.929504 6.110321,-10.552307 -1.229156,-9.695892z" fill="#00007f"/>
      <path d="m495.192749,235.973663c1.478363,0.5923 3.632141,-1.610001 4.403168,-3.276505c0.500488,-1.081802 1.314575,-2.316254 1.602112,-3.560257c3.228607,-13.971039 -17.249756,2.331757 -6.00528,6.836761z" fill="#00007f"/>
     </g>
    </g>
   </g>
   <g id="svg_1">
    <path d="m119.353493,146.02417l-3.251595,-92.596863" id="svg_8" fill="#00007f"/>
    <path d="m184.836395,249.799713l51.796448,-71.285889" id="svg_7" fill="#00007f"/>
    <path d="m62.145817,411.287506l82.158306,-115.464569" id="svg_6" fill="#00007f"/>
    <path d="m395.020172,378.840302l-1.202576,-55.635254" id="svg_5" fill="#00007f"/>
    <path d="m532.95636,332.285553l-77.365784,-46.067169" id="svg_4" fill="#00007f"/>
    <path d="m448.106018,164.876587l25.32489,93.280396" id="svg_3" fill="#00007f"/>
    <path d="m616.066162,87.285347l2.227051,109.175072" id="svg_2" fill="#00007f"/>
   </g>
  </g>
  <rect fill="#000000" stroke="#000000" stroke-width="0" x="13.999991" y="41.00001" width="613.000009" height="400.999992" id="svg_17" filter="url(#svg_17_blur)" rx="4" ry="4" opacity="0.4"/>
 </g>
</svg>